<mxfile host="app.diagrams.net" agent="Mozilla/5.0 (Windows NT 10.0; Win64; x64) AppleWebKit/537.36 (KHTML, like Gecko) Chrome/133.0.0.0 Safari/537.36 OPR/118.0.0.0" version="27.0.6">
  <diagram name="Strona-1" id="IvmJUWWYAiuel7kVuwOy">
    <mxGraphModel dx="2494" dy="1010" grid="1" gridSize="10" guides="1" tooltips="1" connect="1" arrows="1" fold="1" page="1" pageScale="1" pageWidth="827" pageHeight="1169" math="0" shadow="0">
      <root>
        <mxCell id="0" />
        <mxCell id="1" parent="0" />
        <mxCell id="Hhv75JIIoaya6a1i5xTG-1" value="" style="rounded=0;whiteSpace=wrap;html=1;" parent="1" vertex="1">
          <mxGeometry x="-10" y="70" width="1210" height="910" as="geometry" />
        </mxCell>
        <mxCell id="PN3j98BIjmgV5FSvL1AX-6" value="Paczka24" style="text;html=1;align=center;verticalAlign=middle;resizable=0;points=[];autosize=1;strokeColor=none;fillColor=none;fontStyle=1;fontSize=26;" parent="1" vertex="1">
          <mxGeometry x="190" y="90" width="110" height="40" as="geometry" />
        </mxCell>
        <mxCell id="PN3j98BIjmgV5FSvL1AX-7" value="" style="html=1;verticalLabelPosition=bottom;align=center;labelBackgroundColor=#ffffff;verticalAlign=top;strokeWidth=2;shadow=0;dashed=0;shape=mxgraph.ios7.icons.settings;" parent="1" vertex="1">
          <mxGeometry x="930" y="95" width="30" height="30" as="geometry" />
        </mxCell>
        <mxCell id="PN3j98BIjmgV5FSvL1AX-10" value="Użytkownik: X" style="text;html=1;align=center;verticalAlign=middle;resizable=0;points=[];autosize=1;strokeColor=none;fillColor=none;" parent="1" vertex="1">
          <mxGeometry x="400" y="96.4" width="100" height="30" as="geometry" />
        </mxCell>
        <mxCell id="PN3j98BIjmgV5FSvL1AX-14" value="" style="html=1;verticalLabelPosition=bottom;align=center;labelBackgroundColor=#ffffff;verticalAlign=top;strokeWidth=2;shadow=0;dashed=0;shape=mxgraph.ios7.icons.most_viewed;pointerEvents=1" parent="1" vertex="1">
          <mxGeometry x="870" y="98.6" width="28.2" height="22.8" as="geometry" />
        </mxCell>
        <mxCell id="8VmDItg4nQ9LfFQrZR_M-2" value="Wyloguj" style="rounded=0;whiteSpace=wrap;html=1;" parent="1" vertex="1">
          <mxGeometry x="750" y="96.39999999999999" width="90" height="25" as="geometry" />
        </mxCell>
        <mxCell id="L0t0Dum3Yr82zFUlzKBI-8" value="" style="shape=mxgraph.sysml.x;" parent="1" vertex="1">
          <mxGeometry x="50" y="87.1" width="90" height="52.9" as="geometry" />
        </mxCell>
        <mxCell id="Hhv75JIIoaya6a1i5xTG-3" value="" style="rounded=0;whiteSpace=wrap;html=1;" parent="1" vertex="1">
          <mxGeometry x="-10" y="70" width="1210" height="100" as="geometry" />
        </mxCell>
        <mxCell id="Hhv75JIIoaya6a1i5xTG-4" value="Paczka24" style="text;html=1;align=center;verticalAlign=middle;resizable=0;points=[];autosize=1;strokeColor=none;fillColor=none;fontStyle=1;fontSize=35;fontFamily=Inter;" parent="1" vertex="1">
          <mxGeometry x="175" y="90.00999999999998" width="190" height="60" as="geometry" />
        </mxCell>
        <mxCell id="Hhv75JIIoaya6a1i5xTG-5" value="" style="html=1;verticalLabelPosition=bottom;align=center;labelBackgroundColor=#ffffff;verticalAlign=top;strokeWidth=2;shadow=0;dashed=0;shape=mxgraph.ios7.icons.settings;" parent="1" vertex="1">
          <mxGeometry x="1130" y="100.73" width="40" height="38.55" as="geometry" />
        </mxCell>
        <mxCell id="Hhv75JIIoaya6a1i5xTG-6" value="Użytkownik: X" style="text;html=1;align=center;verticalAlign=middle;resizable=0;points=[];autosize=1;strokeColor=none;fillColor=none;fontSize=20;fontFamily=Inter;" parent="1" vertex="1">
          <mxGeometry x="475" y="105.04999999999995" width="160" height="40" as="geometry" />
        </mxCell>
        <mxCell id="Hhv75JIIoaya6a1i5xTG-7" value="" style="html=1;verticalLabelPosition=bottom;align=center;labelBackgroundColor=#ffffff;verticalAlign=top;strokeWidth=2;shadow=0;dashed=0;shape=mxgraph.ios7.icons.most_viewed;pointerEvents=1" parent="1" vertex="1">
          <mxGeometry x="1050" y="102.48" width="41" height="33.6" as="geometry" />
        </mxCell>
        <mxCell id="Hhv75JIIoaya6a1i5xTG-8" value="Wyloguj" style="rounded=0;whiteSpace=wrap;html=1;" parent="1" vertex="1">
          <mxGeometry x="898.2" y="98.6" width="120" height="46.45" as="geometry" />
        </mxCell>
        <mxCell id="Hhv75JIIoaya6a1i5xTG-9" value="" style="shape=mxgraph.sysml.x;" parent="1" vertex="1">
          <mxGeometry x="10" y="84.95" width="110" height="65.05" as="geometry" />
        </mxCell>
        <mxCell id="Hhv75JIIoaya6a1i5xTG-11" value="Śledź swoją &lt;br&gt;przesyłkę" style="text;html=1;align=center;verticalAlign=middle;whiteSpace=wrap;rounded=0;fontSize=38;fontFamily=Inter;" parent="1" vertex="1">
          <mxGeometry x="65" y="210" width="320" height="140" as="geometry" />
        </mxCell>
        <mxCell id="Hhv75JIIoaya6a1i5xTG-12" value="" style="shape=mxgraph.sysml.x;" parent="1" vertex="1">
          <mxGeometry x="450" y="210" width="380" height="280" as="geometry" />
        </mxCell>
        <mxCell id="Hhv75JIIoaya6a1i5xTG-13" value="Wpisz numer przesyłki" style="rounded=1;whiteSpace=wrap;html=1;align=center;textOpacity=60;fontFamily=Inter;" parent="1" vertex="1">
          <mxGeometry x="70" y="360" width="320" height="50" as="geometry" />
        </mxCell>
        <mxCell id="Hhv75JIIoaya6a1i5xTG-14" value="&lt;b&gt;Szukaj&lt;/b&gt;" style="rounded=1;whiteSpace=wrap;html=1;fontFamily=Inter;" parent="1" vertex="1">
          <mxGeometry x="70" y="430" width="320" height="30" as="geometry" />
        </mxCell>
        <mxCell id="Hhv75JIIoaya6a1i5xTG-16" value="" style="shadow=0;dashed=0;html=1;strokeColor=none;fillColor=#000000;labelPosition=center;verticalLabelPosition=bottom;verticalAlign=top;align=center;outlineConnect=0;shape=mxgraph.veeam.magnifying_glass;pointerEvents=1;" parent="1" vertex="1">
          <mxGeometry x="140" y="650" width="105" height="90" as="geometry" />
        </mxCell>
        <mxCell id="Hhv75JIIoaya6a1i5xTG-18" value="" style="html=1;whiteSpace=wrap;shape=isoCube2;backgroundOutline=1;isoAngle=15;" parent="1" vertex="1">
          <mxGeometry x="440" y="650" width="90" height="100" as="geometry" />
        </mxCell>
        <mxCell id="Hhv75JIIoaya6a1i5xTG-19" value="" style="shape=actor;whiteSpace=wrap;html=1;" parent="1" vertex="1">
          <mxGeometry x="747" y="650" width="80" height="100" as="geometry" />
        </mxCell>
        <mxCell id="Hhv75JIIoaya6a1i5xTG-20" value="Szukaj" style="text;html=1;align=center;verticalAlign=middle;whiteSpace=wrap;rounded=0;fontSize=28;fontFamily=Inter;" parent="1" vertex="1">
          <mxGeometry x="120" y="770" width="160" height="80" as="geometry" />
        </mxCell>
        <mxCell id="Hhv75JIIoaya6a1i5xTG-21" value="&lt;font style=&quot;font-size: 27px;&quot;&gt;Moje przesyłki&lt;/font&gt;" style="text;html=1;align=center;verticalAlign=middle;whiteSpace=wrap;rounded=0;fontSize=19;fontFamily=Inter;" parent="1" vertex="1">
          <mxGeometry x="450" y="792.5" width="75" height="35" as="geometry" />
        </mxCell>
        <mxCell id="Hhv75JIIoaya6a1i5xTG-22" value="Moje konto" style="text;html=1;align=center;verticalAlign=middle;whiteSpace=wrap;rounded=0;fontSize=25;fontFamily=Inter;" parent="1" vertex="1">
          <mxGeometry x="757" y="795" width="63" height="35" as="geometry" />
        </mxCell>
        <mxCell id="Hhv75JIIoaya6a1i5xTG-23" value="" style="shape=mxgraph.signs.tech.telephone_3;html=1;pointerEvents=1;fillColor=#000000;strokeColor=none;verticalLabelPosition=bottom;verticalAlign=top;align=center;" parent="1" vertex="1">
          <mxGeometry x="1018.2" y="650" width="74" height="101" as="geometry" />
        </mxCell>
        <mxCell id="Hhv75JIIoaya6a1i5xTG-24" value="&lt;font style=&quot;font-size: 27px;&quot;&gt;Kontakt&lt;/font&gt;" style="text;html=1;align=center;verticalAlign=middle;whiteSpace=wrap;rounded=0;fontFamily=Inter;" parent="1" vertex="1">
          <mxGeometry x="1025.2" y="797.5" width="60" height="30" as="geometry" />
        </mxCell>
      </root>
    </mxGraphModel>
  </diagram>
</mxfile>
